<?xml version="1.0" encoding="UTF-8" standalone="no"?>
<!DOCTYPE svg PUBLIC "-//W3C//DTD SVG 1.1//EN"
 "http://www.w3.org/Graphics/SVG/1.1/DTD/svg11.dtd">
<!-- Generated by graphviz version 9.0.0 (20230911.1827)
 -->
<!-- Title: Tree Pages: 1 -->
<svg width="538pt" height="414pt"
 viewBox="0.00 0.00 537.75 414.00" xmlns="http://www.w3.org/2000/svg" xmlns:xlink="http://www.w3.org/1999/xlink">
<g id="graph0" class="graph" transform="scale(1 1) rotate(0) translate(4 410)">
<title>Tree</title>
<polygon fill="white" stroke="none" points="-4,4 -4,-410 533.75,-410 533.75,4 -4,4"/>
<!-- 0 -->
<g id="node1" class="node">
<title>0</title>
<polygon fill="none" stroke="black" points="201,-406 98.75,-406 98.75,-368 201,-368 201,-406"/>
<text text-anchor="middle" x="149.88" y="-388.7" font-family="Helvetica,sans-Serif" font-size="14.00">lab3 &lt;= 83.5</text>
<text text-anchor="middle" x="149.88" y="-373.7" font-family="Helvetica,sans-Serif" font-size="14.00">class = not A+</text>
</g>
<!-- 1 -->
<g id="node2" class="node">
<title>1</title>
<polygon fill="none" stroke="black" points="142,-331 39.75,-331 39.75,-295 142,-295 142,-331"/>
<text text-anchor="middle" x="90.88" y="-307.2" font-family="Helvetica,sans-Serif" font-size="14.00">class = not A+</text>
</g>
<!-- 0&#45;&gt;1 -->
<g id="edge1" class="edge">
<title>0&#45;&gt;1</title>
<path fill="none" stroke="black" d="M134.99,-367.83C128.13,-359.46 119.85,-349.36 112.33,-340.19"/>
<polygon fill="black" stroke="black" points="115.15,-338.1 106.11,-332.59 109.74,-342.54 115.15,-338.1"/>
<text text-anchor="middle" x="102.68" y="-350.5" font-family="Helvetica,sans-Serif" font-size="14.00">True</text>
</g>
<!-- 2 -->
<g id="node3" class="node">
<title>2</title>
<polygon fill="none" stroke="black" points="258.12,-332 159.62,-332 159.62,-294 258.12,-294 258.12,-332"/>
<text text-anchor="middle" x="208.88" y="-314.7" font-family="Helvetica,sans-Serif" font-size="14.00">quiz1 &lt;= 83.5</text>
<text text-anchor="middle" x="208.88" y="-299.7" font-family="Helvetica,sans-Serif" font-size="14.00">class = A+</text>
</g>
<!-- 0&#45;&gt;2 -->
<g id="edge2" class="edge">
<title>0&#45;&gt;2</title>
<path fill="none" stroke="black" d="M164.76,-367.83C171.35,-359.79 179.24,-350.17 186.51,-341.29"/>
<polygon fill="black" stroke="black" points="189.2,-343.54 192.83,-333.58 183.78,-339.1 189.2,-343.54"/>
<text text-anchor="middle" x="196.26" y="-351.49" font-family="Helvetica,sans-Serif" font-size="14.00">False</text>
</g>
<!-- 3 -->
<g id="node4" class="node">
<title>3</title>
<polygon fill="none" stroke="black" points="200,-258 97.75,-258 97.75,-220 200,-220 200,-258"/>
<text text-anchor="middle" x="148.88" y="-240.7" font-family="Helvetica,sans-Serif" font-size="14.00">lab2 &lt;= 88.0</text>
<text text-anchor="middle" x="148.88" y="-225.7" font-family="Helvetica,sans-Serif" font-size="14.00">class = not A+</text>
</g>
<!-- 2&#45;&gt;3 -->
<g id="edge3" class="edge">
<title>2&#45;&gt;3</title>
<path fill="none" stroke="black" d="M193.73,-293.83C186.96,-285.71 178.84,-275.96 171.38,-267.01"/>
<polygon fill="black" stroke="black" points="174.28,-265.02 165.19,-259.58 168.9,-269.5 174.28,-265.02"/>
</g>
<!-- 6 -->
<g id="node7" class="node">
<title>6</title>
<polygon fill="none" stroke="black" points="314.75,-258 223,-258 223,-220 314.75,-220 314.75,-258"/>
<text text-anchor="middle" x="268.88" y="-240.7" font-family="Helvetica,sans-Serif" font-size="14.00">lab4 &lt;= 83.5</text>
<text text-anchor="middle" x="268.88" y="-225.7" font-family="Helvetica,sans-Serif" font-size="14.00">class = A+</text>
</g>
<!-- 2&#45;&gt;6 -->
<g id="edge6" class="edge">
<title>2&#45;&gt;6</title>
<path fill="none" stroke="black" d="M224.02,-293.83C230.79,-285.71 238.91,-275.96 246.37,-267.01"/>
<polygon fill="black" stroke="black" points="248.85,-269.5 252.56,-259.58 243.47,-265.02 248.85,-269.5"/>
</g>
<!-- 4 -->
<g id="node5" class="node">
<title>4</title>
<polygon fill="none" stroke="black" points="79.75,-183 0,-183 0,-147 79.75,-147 79.75,-183"/>
<text text-anchor="middle" x="39.88" y="-159.2" font-family="Helvetica,sans-Serif" font-size="14.00">class = A+</text>
</g>
<!-- 3&#45;&gt;4 -->
<g id="edge4" class="edge">
<title>3&#45;&gt;4</title>
<path fill="none" stroke="black" d="M121.09,-219.65C107.22,-210.49 90.29,-199.3 75.48,-189.52"/>
<polygon fill="black" stroke="black" points="77.65,-186.76 67.37,-184.16 73.79,-192.6 77.65,-186.76"/>
</g>
<!-- 5 -->
<g id="node6" class="node">
<title>5</title>
<polygon fill="none" stroke="black" points="200,-183 97.75,-183 97.75,-147 200,-147 200,-183"/>
<text text-anchor="middle" x="148.88" y="-159.2" font-family="Helvetica,sans-Serif" font-size="14.00">class = not A+</text>
</g>
<!-- 3&#45;&gt;5 -->
<g id="edge5" class="edge">
<title>3&#45;&gt;5</title>
<path fill="none" stroke="black" d="M148.88,-219.83C148.88,-212.24 148.88,-203.24 148.88,-194.79"/>
<polygon fill="black" stroke="black" points="152.38,-194.93 148.88,-184.93 145.38,-194.93 152.38,-194.93"/>
</g>
<!-- 7 -->
<g id="node8" class="node">
<title>7</title>
<polygon fill="none" stroke="black" points="320,-183 217.75,-183 217.75,-147 320,-147 320,-183"/>
<text text-anchor="middle" x="268.88" y="-159.2" font-family="Helvetica,sans-Serif" font-size="14.00">class = not A+</text>
</g>
<!-- 6&#45;&gt;7 -->
<g id="edge7" class="edge">
<title>6&#45;&gt;7</title>
<path fill="none" stroke="black" d="M268.88,-219.83C268.88,-212.24 268.88,-203.24 268.88,-194.79"/>
<polygon fill="black" stroke="black" points="272.38,-194.93 268.88,-184.93 265.38,-194.93 272.38,-194.93"/>
</g>
<!-- 8 -->
<g id="node9" class="node">
<title>8</title>
<polygon fill="none" stroke="black" points="429.75,-184 338,-184 338,-146 429.75,-146 429.75,-184"/>
<text text-anchor="middle" x="383.88" y="-166.7" font-family="Helvetica,sans-Serif" font-size="14.00">lab2 &lt;= 94.5</text>
<text text-anchor="middle" x="383.88" y="-151.7" font-family="Helvetica,sans-Serif" font-size="14.00">class = A+</text>
</g>
<!-- 6&#45;&gt;8 -->
<g id="edge8" class="edge">
<title>6&#45;&gt;8</title>
<path fill="none" stroke="black" d="M298.19,-219.65C312.38,-210.76 329.62,-199.97 344.9,-190.4"/>
<polygon fill="black" stroke="black" points="346.71,-193.4 353.33,-185.12 343,-187.46 346.71,-193.4"/>
</g>
<!-- 9 -->
<g id="node10" class="node">
<title>9</title>
<polygon fill="none" stroke="black" points="371.75,-109 292,-109 292,-73 371.75,-73 371.75,-109"/>
<text text-anchor="middle" x="331.88" y="-85.2" font-family="Helvetica,sans-Serif" font-size="14.00">class = A+</text>
</g>
<!-- 8&#45;&gt;9 -->
<g id="edge9" class="edge">
<title>8&#45;&gt;9</title>
<path fill="none" stroke="black" d="M370.75,-145.83C364.77,-137.55 357.57,-127.57 351,-118.47"/>
<polygon fill="black" stroke="black" points="354.03,-116.7 345.34,-110.64 348.36,-120.8 354.03,-116.7"/>
</g>
<!-- 10 -->
<g id="node11" class="node">
<title>10</title>
<polygon fill="none" stroke="black" points="481.75,-110 390,-110 390,-72 481.75,-72 481.75,-110"/>
<text text-anchor="middle" x="435.88" y="-92.7" font-family="Helvetica,sans-Serif" font-size="14.00">lab3 &lt;= 95.0</text>
<text text-anchor="middle" x="435.88" y="-77.7" font-family="Helvetica,sans-Serif" font-size="14.00">class = A+</text>
</g>
<!-- 8&#45;&gt;10 -->
<g id="edge10" class="edge">
<title>8&#45;&gt;10</title>
<path fill="none" stroke="black" d="M397,-145.83C402.74,-137.88 409.61,-128.37 415.96,-119.57"/>
<polygon fill="black" stroke="black" points="418.67,-121.8 421.69,-111.64 413,-117.7 418.67,-121.8"/>
</g>
<!-- 11 -->
<g id="node12" class="node">
<title>11</title>
<polygon fill="none" stroke="black" points="432,-36 329.75,-36 329.75,0 432,0 432,-36"/>
<text text-anchor="middle" x="380.88" y="-12.2" font-family="Helvetica,sans-Serif" font-size="14.00">class = not A+</text>
</g>
<!-- 10&#45;&gt;11 -->
<g id="edge11" class="edge">
<title>10&#45;&gt;11</title>
<path fill="none" stroke="black" d="M421.71,-71.72C415.54,-63.75 408.19,-54.26 401.43,-45.54"/>
<polygon fill="black" stroke="black" points="404.24,-43.45 395.35,-37.68 398.71,-47.73 404.24,-43.45"/>
</g>
<!-- 12 -->
<g id="node13" class="node">
<title>12</title>
<polygon fill="none" stroke="black" points="529.75,-36 450,-36 450,0 529.75,0 529.75,-36"/>
<text text-anchor="middle" x="489.88" y="-12.2" font-family="Helvetica,sans-Serif" font-size="14.00">class = A+</text>
</g>
<!-- 10&#45;&gt;12 -->
<g id="edge12" class="edge">
<title>10&#45;&gt;12</title>
<path fill="none" stroke="black" d="M449.78,-71.72C455.84,-63.75 463.06,-54.26 469.69,-45.54"/>
<polygon fill="black" stroke="black" points="472.39,-47.77 475.66,-37.69 466.82,-43.53 472.39,-47.77"/>
</g>
</g>
</svg>
