<?xml version="1.0" encoding="UTF-8" standalone="no"?>
<!DOCTYPE svg PUBLIC "-//W3C//DTD SVG 1.1//EN"
 "http://www.w3.org/Graphics/SVG/1.1/DTD/svg11.dtd">
<!-- Generated by graphviz version 9.0.0 (20230911.1827)
 -->
<!-- Title: Tree Pages: 1 -->
<svg width="541pt" height="414pt"
 viewBox="0.00 0.00 541.00 414.00" xmlns="http://www.w3.org/2000/svg" xmlns:xlink="http://www.w3.org/1999/xlink">
<g id="graph0" class="graph" transform="scale(1 1) rotate(0) translate(4 410)">
<title>Tree</title>
<polygon fill="white" stroke="none" points="-4,4 -4,-410 537,-410 537,4 -4,4"/>
<!-- 0 -->
<g id="node1" class="node">
<title>0</title>
<polygon fill="none" stroke="black" points="207.25,-406 105,-406 105,-368 207.25,-368 207.25,-406"/>
<text text-anchor="middle" x="156.12" y="-388.7" font-family="Helvetica,sans-Serif" font-size="14.00">lab3 &lt;= 83.5</text>
<text text-anchor="middle" x="156.12" y="-373.7" font-family="Helvetica,sans-Serif" font-size="14.00">class = not A+</text>
</g>
<!-- 1 -->
<g id="node2" class="node">
<title>1</title>
<polygon fill="none" stroke="black" points="148.25,-331 46,-331 46,-295 148.25,-295 148.25,-331"/>
<text text-anchor="middle" x="97.12" y="-307.2" font-family="Helvetica,sans-Serif" font-size="14.00">class = not A+</text>
</g>
<!-- 0&#45;&gt;1 -->
<g id="edge1" class="edge">
<title>0&#45;&gt;1</title>
<path fill="none" stroke="black" d="M141.24,-367.83C134.38,-359.46 126.1,-349.36 118.58,-340.19"/>
<polygon fill="black" stroke="black" points="121.4,-338.1 112.36,-332.59 115.99,-342.54 121.4,-338.1"/>
<text text-anchor="middle" x="108.93" y="-350.5" font-family="Helvetica,sans-Serif" font-size="14.00">True</text>
</g>
<!-- 2 -->
<g id="node3" class="node">
<title>2</title>
<polygon fill="none" stroke="black" points="264.38,-332 165.88,-332 165.88,-294 264.38,-294 264.38,-332"/>
<text text-anchor="middle" x="215.12" y="-314.7" font-family="Helvetica,sans-Serif" font-size="14.00">quiz1 &lt;= 83.5</text>
<text text-anchor="middle" x="215.12" y="-299.7" font-family="Helvetica,sans-Serif" font-size="14.00">class = A+</text>
</g>
<!-- 0&#45;&gt;2 -->
<g id="edge2" class="edge">
<title>0&#45;&gt;2</title>
<path fill="none" stroke="black" d="M171.01,-367.83C177.6,-359.79 185.49,-350.17 192.76,-341.29"/>
<polygon fill="black" stroke="black" points="195.45,-343.54 199.08,-333.58 190.03,-339.1 195.45,-343.54"/>
<text text-anchor="middle" x="202.51" y="-351.49" font-family="Helvetica,sans-Serif" font-size="14.00">False</text>
</g>
<!-- 3 -->
<g id="node4" class="node">
<title>3</title>
<polygon fill="none" stroke="black" points="209.25,-258 107,-258 107,-220 209.25,-220 209.25,-258"/>
<text text-anchor="middle" x="158.12" y="-240.7" font-family="Helvetica,sans-Serif" font-size="14.00">lab1 &lt;= 97.5</text>
<text text-anchor="middle" x="158.12" y="-225.7" font-family="Helvetica,sans-Serif" font-size="14.00">class = not A+</text>
</g>
<!-- 2&#45;&gt;3 -->
<g id="edge3" class="edge">
<title>2&#45;&gt;3</title>
<path fill="none" stroke="black" d="M200.74,-293.83C194.38,-285.79 186.76,-276.17 179.73,-267.29"/>
<polygon fill="black" stroke="black" points="182.59,-265.27 173.64,-259.6 177.1,-269.61 182.59,-265.27"/>
</g>
<!-- 6 -->
<g id="node7" class="node">
<title>6</title>
<polygon fill="none" stroke="black" points="319,-258 227.25,-258 227.25,-220 319,-220 319,-258"/>
<text text-anchor="middle" x="273.12" y="-240.7" font-family="Helvetica,sans-Serif" font-size="14.00">lab4 &lt;= 83.5</text>
<text text-anchor="middle" x="273.12" y="-225.7" font-family="Helvetica,sans-Serif" font-size="14.00">class = A+</text>
</g>
<!-- 2&#45;&gt;6 -->
<g id="edge6" class="edge">
<title>2&#45;&gt;6</title>
<path fill="none" stroke="black" d="M229.76,-293.83C236.24,-285.79 243.99,-276.17 251.14,-267.29"/>
<polygon fill="black" stroke="black" points="253.79,-269.58 257.34,-259.59 248.34,-265.18 253.79,-269.58"/>
</g>
<!-- 4 -->
<g id="node5" class="node">
<title>4</title>
<polygon fill="none" stroke="black" points="102.25,-183 0,-183 0,-147 102.25,-147 102.25,-183"/>
<text text-anchor="middle" x="51.12" y="-159.2" font-family="Helvetica,sans-Serif" font-size="14.00">class = not A+</text>
</g>
<!-- 3&#45;&gt;4 -->
<g id="edge4" class="edge">
<title>3&#45;&gt;4</title>
<path fill="none" stroke="black" d="M130.85,-219.65C117.24,-210.49 100.61,-199.3 86.08,-189.52"/>
<polygon fill="black" stroke="black" points="88.39,-186.85 78.14,-184.18 84.48,-192.66 88.39,-186.85"/>
</g>
<!-- 5 -->
<g id="node6" class="node">
<title>5</title>
<polygon fill="none" stroke="black" points="200,-183 120.25,-183 120.25,-147 200,-147 200,-183"/>
<text text-anchor="middle" x="160.12" y="-159.2" font-family="Helvetica,sans-Serif" font-size="14.00">class = A+</text>
</g>
<!-- 3&#45;&gt;5 -->
<g id="edge5" class="edge">
<title>3&#45;&gt;5</title>
<path fill="none" stroke="black" d="M158.63,-219.83C158.84,-212.24 159.09,-203.24 159.33,-194.79"/>
<polygon fill="black" stroke="black" points="162.82,-195.02 159.6,-184.93 155.82,-194.83 162.82,-195.02"/>
</g>
<!-- 7 -->
<g id="node8" class="node">
<title>7</title>
<polygon fill="none" stroke="black" points="323.25,-183 221,-183 221,-147 323.25,-147 323.25,-183"/>
<text text-anchor="middle" x="272.12" y="-159.2" font-family="Helvetica,sans-Serif" font-size="14.00">class = not A+</text>
</g>
<!-- 6&#45;&gt;7 -->
<g id="edge7" class="edge">
<title>6&#45;&gt;7</title>
<path fill="none" stroke="black" d="M272.87,-219.83C272.77,-212.24 272.64,-203.24 272.52,-194.79"/>
<polygon fill="black" stroke="black" points="276.03,-194.88 272.39,-184.93 269.03,-194.98 276.03,-194.88"/>
</g>
<!-- 8 -->
<g id="node9" class="node">
<title>8</title>
<polygon fill="none" stroke="black" points="433,-184 341.25,-184 341.25,-146 433,-146 433,-184"/>
<text text-anchor="middle" x="387.12" y="-166.7" font-family="Helvetica,sans-Serif" font-size="14.00">lab2 &lt;= 94.5</text>
<text text-anchor="middle" x="387.12" y="-151.7" font-family="Helvetica,sans-Serif" font-size="14.00">class = A+</text>
</g>
<!-- 6&#45;&gt;8 -->
<g id="edge8" class="edge">
<title>6&#45;&gt;8</title>
<path fill="none" stroke="black" d="M302.19,-219.65C316.26,-210.76 333.34,-199.97 348.49,-190.4"/>
<polygon fill="black" stroke="black" points="350.25,-193.43 356.84,-185.13 346.51,-187.51 350.25,-193.43"/>
</g>
<!-- 9 -->
<g id="node10" class="node">
<title>9</title>
<polygon fill="none" stroke="black" points="375,-109 295.25,-109 295.25,-73 375,-73 375,-109"/>
<text text-anchor="middle" x="335.12" y="-85.2" font-family="Helvetica,sans-Serif" font-size="14.00">class = A+</text>
</g>
<!-- 8&#45;&gt;9 -->
<g id="edge9" class="edge">
<title>8&#45;&gt;9</title>
<path fill="none" stroke="black" d="M374,-145.83C368.02,-137.55 360.82,-127.57 354.25,-118.47"/>
<polygon fill="black" stroke="black" points="357.28,-116.7 348.59,-110.64 351.61,-120.8 357.28,-116.7"/>
</g>
<!-- 10 -->
<g id="node11" class="node">
<title>10</title>
<polygon fill="none" stroke="black" points="485,-110 393.25,-110 393.25,-72 485,-72 485,-110"/>
<text text-anchor="middle" x="439.12" y="-92.7" font-family="Helvetica,sans-Serif" font-size="14.00">lab2 &lt;= 95.5</text>
<text text-anchor="middle" x="439.12" y="-77.7" font-family="Helvetica,sans-Serif" font-size="14.00">class = A+</text>
</g>
<!-- 8&#45;&gt;10 -->
<g id="edge10" class="edge">
<title>8&#45;&gt;10</title>
<path fill="none" stroke="black" d="M400.25,-145.83C405.99,-137.88 412.86,-128.37 419.21,-119.57"/>
<polygon fill="black" stroke="black" points="421.92,-121.8 424.94,-111.64 416.25,-117.7 421.92,-121.8"/>
</g>
<!-- 11 -->
<g id="node12" class="node">
<title>11</title>
<polygon fill="none" stroke="black" points="435.25,-36 333,-36 333,0 435.25,0 435.25,-36"/>
<text text-anchor="middle" x="384.12" y="-12.2" font-family="Helvetica,sans-Serif" font-size="14.00">class = not A+</text>
</g>
<!-- 10&#45;&gt;11 -->
<g id="edge11" class="edge">
<title>10&#45;&gt;11</title>
<path fill="none" stroke="black" d="M424.96,-71.72C418.79,-63.75 411.44,-54.26 404.68,-45.54"/>
<polygon fill="black" stroke="black" points="407.49,-43.45 398.6,-37.68 401.96,-47.73 407.49,-43.45"/>
</g>
<!-- 12 -->
<g id="node13" class="node">
<title>12</title>
<polygon fill="none" stroke="black" points="533,-36 453.25,-36 453.25,0 533,0 533,-36"/>
<text text-anchor="middle" x="493.12" y="-12.2" font-family="Helvetica,sans-Serif" font-size="14.00">class = A+</text>
</g>
<!-- 10&#45;&gt;12 -->
<g id="edge12" class="edge">
<title>10&#45;&gt;12</title>
<path fill="none" stroke="black" d="M453.03,-71.72C459.09,-63.75 466.31,-54.26 472.94,-45.54"/>
<polygon fill="black" stroke="black" points="475.64,-47.77 478.91,-37.69 470.07,-43.53 475.64,-47.77"/>
</g>
</g>
</svg>
