<?xml version="1.0" encoding="UTF-8" standalone="no"?>
<!DOCTYPE svg PUBLIC "-//W3C//DTD SVG 1.1//EN"
 "http://www.w3.org/Graphics/SVG/1.1/DTD/svg11.dtd">
<!-- Generated by graphviz version 9.0.0 (20230911.1827)
 -->
<!-- Title: Tree Pages: 1 -->
<svg width="560pt" height="414pt"
 viewBox="0.00 0.00 559.75 414.00" xmlns="http://www.w3.org/2000/svg" xmlns:xlink="http://www.w3.org/1999/xlink">
<g id="graph0" class="graph" transform="scale(1 1) rotate(0) translate(4 410)">
<title>Tree</title>
<polygon fill="white" stroke="none" points="-4,4 -4,-410 555.75,-410 555.75,4 -4,4"/>
<!-- 0 -->
<g id="node1" class="node">
<title>0</title>
<polygon fill="none" stroke="black" points="337.25,-406 235,-406 235,-368 337.25,-368 337.25,-406"/>
<text text-anchor="middle" x="286.12" y="-388.7" font-family="Helvetica,sans-Serif" font-size="14.00">lab4 &lt;= 0.5</text>
<text text-anchor="middle" x="286.12" y="-373.7" font-family="Helvetica,sans-Serif" font-size="14.00">class = not A+</text>
</g>
<!-- 1 -->
<g id="node2" class="node">
<title>1</title>
<polygon fill="none" stroke="black" points="277,-332 113.25,-332 113.25,-294 277,-294 277,-332"/>
<text text-anchor="middle" x="195.12" y="-314.7" font-family="Helvetica,sans-Serif" font-size="14.00">class_attendance &lt;= 0.5</text>
<text text-anchor="middle" x="195.12" y="-299.7" font-family="Helvetica,sans-Serif" font-size="14.00">class = not A+</text>
</g>
<!-- 0&#45;&gt;1 -->
<g id="edge1" class="edge">
<title>0&#45;&gt;1</title>
<path fill="none" stroke="black" d="M263.16,-367.83C252.25,-359.2 239.03,-348.74 227.16,-339.34"/>
<polygon fill="black" stroke="black" points="229.6,-336.81 219.58,-333.35 225.25,-342.3 229.6,-336.81"/>
<text text-anchor="middle" x="221.29" y="-351.45" font-family="Helvetica,sans-Serif" font-size="14.00">True</text>
</g>
<!-- 10 -->
<g id="node11" class="node">
<title>10</title>
<polygon fill="none" stroke="black" points="459,-332 295.25,-332 295.25,-294 459,-294 459,-332"/>
<text text-anchor="middle" x="377.12" y="-314.7" font-family="Helvetica,sans-Serif" font-size="14.00">class_attendance &lt;= 0.5</text>
<text text-anchor="middle" x="377.12" y="-299.7" font-family="Helvetica,sans-Serif" font-size="14.00">class = A+</text>
</g>
<!-- 0&#45;&gt;10 -->
<g id="edge10" class="edge">
<title>0&#45;&gt;10</title>
<path fill="none" stroke="black" d="M309.09,-367.83C320,-359.2 333.22,-348.74 345.09,-339.34"/>
<polygon fill="black" stroke="black" points="347,-342.3 352.67,-333.35 342.65,-336.81 347,-342.3"/>
<text text-anchor="middle" x="350.96" y="-351.45" font-family="Helvetica,sans-Serif" font-size="14.00">False</text>
</g>
<!-- 2 -->
<g id="node3" class="node">
<title>2</title>
<polygon fill="none" stroke="black" points="148.25,-258 46,-258 46,-220 148.25,-220 148.25,-258"/>
<text text-anchor="middle" x="97.12" y="-240.7" font-family="Helvetica,sans-Serif" font-size="14.00">lab3 &lt;= 0.5</text>
<text text-anchor="middle" x="97.12" y="-225.7" font-family="Helvetica,sans-Serif" font-size="14.00">class = not A+</text>
</g>
<!-- 1&#45;&gt;2 -->
<g id="edge2" class="edge">
<title>1&#45;&gt;2</title>
<path fill="none" stroke="black" d="M170.14,-293.65C158.28,-284.93 143.92,-274.38 131.08,-264.95"/>
<polygon fill="black" stroke="black" points="133.41,-262.32 123.28,-259.22 129.27,-267.96 133.41,-262.32"/>
</g>
<!-- 9 -->
<g id="node10" class="node">
<title>9</title>
<polygon fill="none" stroke="black" points="268.25,-257 166,-257 166,-221 268.25,-221 268.25,-257"/>
<text text-anchor="middle" x="217.12" y="-233.2" font-family="Helvetica,sans-Serif" font-size="14.00">class = not A+</text>
</g>
<!-- 1&#45;&gt;9 -->
<g id="edge9" class="edge">
<title>1&#45;&gt;9</title>
<path fill="none" stroke="black" d="M200.68,-293.83C203.05,-286.07 205.87,-276.83 208.51,-268.21"/>
<polygon fill="black" stroke="black" points="211.79,-269.45 211.36,-258.87 205.09,-267.41 211.79,-269.45"/>
</g>
<!-- 3 -->
<g id="node4" class="node">
<title>3</title>
<polygon fill="none" stroke="black" points="111.25,-184 9,-184 9,-146 111.25,-146 111.25,-184"/>
<text text-anchor="middle" x="60.12" y="-166.7" font-family="Helvetica,sans-Serif" font-size="14.00">quiz1 &lt;= 0.5</text>
<text text-anchor="middle" x="60.12" y="-151.7" font-family="Helvetica,sans-Serif" font-size="14.00">class = not A+</text>
</g>
<!-- 2&#45;&gt;3 -->
<g id="edge3" class="edge">
<title>2&#45;&gt;3</title>
<path fill="none" stroke="black" d="M87.79,-219.83C83.83,-212.13 79.13,-202.97 74.73,-194.42"/>
<polygon fill="black" stroke="black" points="77.96,-193.05 70.28,-185.76 71.74,-196.25 77.96,-193.05"/>
</g>
<!-- 8 -->
<g id="node9" class="node">
<title>8</title>
<polygon fill="none" stroke="black" points="209,-183 129.25,-183 129.25,-147 209,-147 209,-183"/>
<text text-anchor="middle" x="169.12" y="-159.2" font-family="Helvetica,sans-Serif" font-size="14.00">class = A+</text>
</g>
<!-- 2&#45;&gt;8 -->
<g id="edge8" class="edge">
<title>2&#45;&gt;8</title>
<path fill="none" stroke="black" d="M115.29,-219.83C123.93,-211.2 134.4,-200.73 143.79,-191.33"/>
<polygon fill="black" stroke="black" points="146.04,-194.03 150.64,-184.49 141.09,-189.08 146.04,-194.03"/>
</g>
<!-- 4 -->
<g id="node5" class="node">
<title>4</title>
<polygon fill="none" stroke="black" points="102.25,-109 0,-109 0,-73 102.25,-73 102.25,-109"/>
<text text-anchor="middle" x="51.12" y="-85.2" font-family="Helvetica,sans-Serif" font-size="14.00">class = not A+</text>
</g>
<!-- 3&#45;&gt;4 -->
<g id="edge4" class="edge">
<title>3&#45;&gt;4</title>
<path fill="none" stroke="black" d="M57.85,-145.83C56.91,-138.24 55.78,-129.24 54.72,-120.79"/>
<polygon fill="black" stroke="black" points="58.2,-120.41 53.49,-110.92 51.26,-121.28 58.2,-120.41"/>
</g>
<!-- 5 -->
<g id="node6" class="node">
<title>5</title>
<polygon fill="none" stroke="black" points="204.25,-110 120,-110 120,-72 204.25,-72 204.25,-110"/>
<text text-anchor="middle" x="162.12" y="-92.7" font-family="Helvetica,sans-Serif" font-size="14.00">lab2 &lt;= 0.5</text>
<text text-anchor="middle" x="162.12" y="-77.7" font-family="Helvetica,sans-Serif" font-size="14.00">class = A+</text>
</g>
<!-- 3&#45;&gt;5 -->
<g id="edge5" class="edge">
<title>3&#45;&gt;5</title>
<path fill="none" stroke="black" d="M86.13,-145.65C98.48,-136.93 113.42,-126.38 126.78,-116.95"/>
<polygon fill="black" stroke="black" points="128.78,-119.82 134.93,-111.19 124.75,-114.1 128.78,-119.82"/>
</g>
<!-- 6 -->
<g id="node7" class="node">
<title>6</title>
<polygon fill="none" stroke="black" points="173,-36 93.25,-36 93.25,0 173,0 173,-36"/>
<text text-anchor="middle" x="133.12" y="-12.2" font-family="Helvetica,sans-Serif" font-size="14.00">class = A+</text>
</g>
<!-- 5&#45;&gt;6 -->
<g id="edge6" class="edge">
<title>5&#45;&gt;6</title>
<path fill="none" stroke="black" d="M154.66,-71.72C151.58,-64.17 147.94,-55.26 144.54,-46.94"/>
<polygon fill="black" stroke="black" points="147.86,-45.82 140.84,-37.89 141.38,-48.47 147.86,-45.82"/>
</g>
<!-- 7 -->
<g id="node8" class="node">
<title>7</title>
<polygon fill="none" stroke="black" points="293.25,-36 191,-36 191,0 293.25,0 293.25,-36"/>
<text text-anchor="middle" x="242.12" y="-12.2" font-family="Helvetica,sans-Serif" font-size="14.00">class = not A+</text>
</g>
<!-- 5&#45;&gt;7 -->
<g id="edge7" class="edge">
<title>5&#45;&gt;7</title>
<path fill="none" stroke="black" d="M182.73,-71.72C192.28,-63.24 203.77,-53.04 214.09,-43.88"/>
<polygon fill="black" stroke="black" points="216.13,-46.75 221.29,-37.49 211.49,-41.51 216.13,-46.75"/>
</g>
<!-- 11 -->
<g id="node12" class="node">
<title>11</title>
<polygon fill="none" stroke="black" points="406.25,-257 304,-257 304,-221 406.25,-221 406.25,-257"/>
<text text-anchor="middle" x="355.12" y="-233.2" font-family="Helvetica,sans-Serif" font-size="14.00">class = not A+</text>
</g>
<!-- 10&#45;&gt;11 -->
<g id="edge11" class="edge">
<title>10&#45;&gt;11</title>
<path fill="none" stroke="black" d="M371.57,-293.83C369.2,-286.07 366.38,-276.83 363.74,-268.21"/>
<polygon fill="black" stroke="black" points="367.16,-267.41 360.89,-258.87 360.46,-269.45 367.16,-267.41"/>
</g>
<!-- 12 -->
<g id="node13" class="node">
<title>12</title>
<polygon fill="none" stroke="black" points="515.62,-258 424.62,-258 424.62,-220 515.62,-220 515.62,-258"/>
<text text-anchor="middle" x="470.12" y="-240.7" font-family="Helvetica,sans-Serif" font-size="14.00">quiz1 &lt;= 0.5</text>
<text text-anchor="middle" x="470.12" y="-225.7" font-family="Helvetica,sans-Serif" font-size="14.00">class = A+</text>
</g>
<!-- 10&#45;&gt;12 -->
<g id="edge12" class="edge">
<title>10&#45;&gt;12</title>
<path fill="none" stroke="black" d="M400.59,-293.83C411.74,-285.2 425.25,-274.74 437.39,-265.34"/>
<polygon fill="black" stroke="black" points="439.38,-268.23 445.14,-259.34 435.09,-262.69 439.38,-268.23"/>
</g>
<!-- 13 -->
<g id="node14" class="node">
<title>13</title>
<polygon fill="none" stroke="black" points="440.25,-184 356,-184 356,-146 440.25,-146 440.25,-184"/>
<text text-anchor="middle" x="398.12" y="-166.7" font-family="Helvetica,sans-Serif" font-size="14.00">lab2 &lt;= 0.5</text>
<text text-anchor="middle" x="398.12" y="-151.7" font-family="Helvetica,sans-Serif" font-size="14.00">class = A+</text>
</g>
<!-- 12&#45;&gt;13 -->
<g id="edge13" class="edge">
<title>12&#45;&gt;13</title>
<path fill="none" stroke="black" d="M451.96,-219.83C443.66,-211.54 433.68,-201.56 424.58,-192.45"/>
<polygon fill="black" stroke="black" points="427.15,-190.08 417.61,-185.48 422.2,-195.03 427.15,-190.08"/>
</g>
<!-- 18 -->
<g id="node19" class="node">
<title>18</title>
<polygon fill="none" stroke="black" points="538,-183 458.25,-183 458.25,-147 538,-147 538,-183"/>
<text text-anchor="middle" x="498.12" y="-159.2" font-family="Helvetica,sans-Serif" font-size="14.00">class = A+</text>
</g>
<!-- 12&#45;&gt;18 -->
<g id="edge18" class="edge">
<title>12&#45;&gt;18</title>
<path fill="none" stroke="black" d="M477.19,-219.83C480.24,-211.98 483.88,-202.62 487.27,-193.92"/>
<polygon fill="black" stroke="black" points="490.44,-195.42 490.8,-184.83 483.92,-192.88 490.44,-195.42"/>
</g>
<!-- 14 -->
<g id="node15" class="node">
<title>14</title>
<polygon fill="none" stroke="black" points="386,-109 306.25,-109 306.25,-73 386,-73 386,-109"/>
<text text-anchor="middle" x="346.12" y="-85.2" font-family="Helvetica,sans-Serif" font-size="14.00">class = A+</text>
</g>
<!-- 13&#45;&gt;14 -->
<g id="edge14" class="edge">
<title>13&#45;&gt;14</title>
<path fill="none" stroke="black" d="M385,-145.83C379.02,-137.55 371.82,-127.57 365.25,-118.47"/>
<polygon fill="black" stroke="black" points="368.28,-116.7 359.59,-110.64 362.61,-120.8 368.28,-116.7"/>
</g>
<!-- 15 -->
<g id="node16" class="node">
<title>15</title>
<polygon fill="none" stroke="black" points="551.75,-110 404.5,-110 404.5,-72 551.75,-72 551.75,-110"/>
<text text-anchor="middle" x="478.12" y="-92.7" font-family="Helvetica,sans-Serif" font-size="14.00">ml_experience &lt;= 0.5</text>
<text text-anchor="middle" x="478.12" y="-77.7" font-family="Helvetica,sans-Serif" font-size="14.00">class = A+</text>
</g>
<!-- 13&#45;&gt;15 -->
<g id="edge15" class="edge">
<title>13&#45;&gt;15</title>
<path fill="none" stroke="black" d="M418.31,-145.83C427.71,-137.37 439.07,-127.15 449.35,-117.9"/>
<polygon fill="black" stroke="black" points="451.45,-120.72 456.54,-111.43 446.77,-115.51 451.45,-120.72"/>
</g>
<!-- 16 -->
<g id="node17" class="node">
<title>16</title>
<polygon fill="none" stroke="black" points="425,-36 345.25,-36 345.25,0 425,0 425,-36"/>
<text text-anchor="middle" x="385.12" y="-12.2" font-family="Helvetica,sans-Serif" font-size="14.00">class = A+</text>
</g>
<!-- 15&#45;&gt;16 -->
<g id="edge16" class="edge">
<title>15&#45;&gt;16</title>
<path fill="none" stroke="black" d="M454.18,-71.72C442.85,-63.07 429.18,-52.63 416.99,-43.33"/>
<polygon fill="black" stroke="black" points="419.31,-40.69 409.23,-37.41 415.06,-46.26 419.31,-40.69"/>
</g>
<!-- 17 -->
<g id="node18" class="node">
<title>17</title>
<polygon fill="none" stroke="black" points="523,-36 443.25,-36 443.25,0 523,0 523,-36"/>
<text text-anchor="middle" x="483.12" y="-12.2" font-family="Helvetica,sans-Serif" font-size="14.00">class = A+</text>
</g>
<!-- 15&#45;&gt;17 -->
<g id="edge17" class="edge">
<title>15&#45;&gt;17</title>
<path fill="none" stroke="black" d="M479.41,-71.72C479.93,-64.43 480.53,-55.86 481.1,-47.78"/>
<polygon fill="black" stroke="black" points="484.58,-48.22 481.79,-38 477.59,-47.73 484.58,-48.22"/>
</g>
</g>
</svg>
